<svg xmlns="http://www.w3.org/2000/svg" xmlns:xlink="http://www.w3.org/1999/xlink" width="500" zoomAndPan="magnify" viewBox="0 0 375 374.999991" height="500" preserveAspectRatio="xMidYMid meet" version="1.0"><defs><clipPath id="fe37e64498"><path d="M 67.730469 37.5 L 306.980469 37.5 L 306.980469 337.5 L 67.730469 337.5 Z M 67.730469 37.5 " clip-rule="nonzero"/></clipPath></defs><g clip-path="url(#fe37e64498)"><path fill="#ffffff" d="M 175.238281 37.886719 C 264.773438 31.207031 328.054688 113.429688 300.300781 198.648438 C 287.632812 237.574219 249.570312 280.871094 221.414062 310.351562 C 216.40625 315.59375 199.363281 333.84375 194.121094 336.035156 C 184.851562 339.949219 178.632812 335.398438 172.128906 329.640625 C 157.214844 316.398438 140.863281 297.683594 127.792969 282.425781 C 89.269531 237.34375 54.953125 186.382812 72.398438 123.96875 C 85.183594 78.25 127.332031 41.457031 175.179688 37.886719 Z M 276.117188 126.960938 C 258.554688 79.917969 208.460938 52.570312 159.34375 67.480469 C 138.902344 73.699219 122.839844 87.230469 109.710938 103.640625 C 114.605469 103.757812 119.960938 102.375 124.96875 102.203125 C 144.257812 101.511719 164.816406 106.808594 173.914062 125.292969 C 176.15625 129.839844 177.367188 137.441406 181.109375 140.550781 C 188.710938 146.828125 203.679688 142.796875 205.234375 155.578125 C 207.597656 175.328125 193.71875 191.96875 174.488281 194.964844 C 165.621094 220.644531 173.394531 266.246094 208.460938 263.484375 C 243.527344 260.71875 242.433594 245.460938 252.507812 233.253906 C 262.585938 221.046875 265.578125 217.015625 266.269531 211.316406 C 268.054688 196.171875 263.21875 179.246094 260.570312 164.445312 L 255.101562 169.628906 L 242.777344 183.792969 C 239.265625 186.152344 233.621094 181.894531 229.820312 180.570312 C 226.023438 179.246094 221.183594 177.917969 217.730469 177.691406 C 214.277344 177.460938 211.398438 178.207031 211.109375 178.035156 C 208.574219 176.480469 213.125 167.210938 214.390625 166.863281 C 215.65625 166.519531 228.039062 169.628906 230.339844 170.261719 C 232.644531 170.894531 235.523438 172.566406 238.34375 173.027344 C 240.300781 172.507812 252.21875 156.847656 255.734375 154.140625 C 260.972656 150.050781 264.082031 149.589844 267.078125 156.039062 C 271.738281 166.230469 273.640625 179.589844 275.023438 190.703125 C 276.402344 201.816406 275.367188 192.429688 276.171875 191.566406 C 283.027344 175.15625 283.773438 156.441406 279.511719 139.285156 L 260.972656 132.835938 C 234.082031 149.648438 202.703125 152.296875 185.082031 121.722656 C 183.816406 119.535156 183.242188 116.367188 181.398438 114.46875 C 179.554688 112.566406 175.351562 112.046875 175.351562 108.996094 C 175.351562 105.945312 178.632812 105.082031 180.246094 102.894531 C 185.890625 95.292969 185.199219 88.554688 195.734375 83.257812 C 218.363281 71.914062 232.242188 96.097656 245.886719 109.285156 C 254.292969 117.347656 264.371094 125.121094 276.117188 127.132812 Z M 251.355469 125.808594 C 238.632812 118.785156 230.050781 105.082031 219.113281 96.15625 C 202.011719 82.164062 183.699219 100.707031 194.8125 119.304688 C 207.421875 140.4375 232.183594 137.554688 251.011719 127.019531 L 251.355469 125.867188 Z M 152.894531 190.875 C 153.472656 190.125 149.960938 187.246094 149.324219 186.097656 C 148.175781 184.082031 147.3125 181.546875 148.636719 179.417969 C 151.570312 174.636719 155.71875 179.933594 158.480469 181.546875 C 170.226562 188.515625 186.121094 183.964844 192.164062 171.703125 C 198.210938 159.4375 191.933594 166.578125 190.035156 162.085938 C 188.132812 157.59375 189.402344 157.074219 188.941406 154.542969 C 185.082031 153.21875 180.9375 152.46875 177.308594 150.628906 C 165.621094 144.8125 168.613281 133.640625 161.820312 124.660156 C 153.125 113.257812 134.183594 112.105469 120.9375 113.085938 C 113.339844 113.660156 103.78125 115.503906 99.921875 122.585938 C 96.066406 129.667969 91.054688 153.390625 92.496094 163.984375 C 93.933594 174.582031 105.566406 175.558594 110.460938 168.1875 C 115.007812 161.335938 112.878906 141.472656 113.800781 132.375 C 114.605469 124.140625 121.34375 123.160156 124.625 130.1875 C 121.457031 146.710938 129.519531 181.085938 104.296875 182.757812 C 100.960938 182.988281 98.484375 182.582031 95.375 181.605469 C 101.417969 201.355469 112.300781 219.609375 127.042969 234.003906 C 126.695312 216.5 136.542969 197.898438 152.953125 190.816406 Z M 162.683594 197.210938 C 147.136719 202.332031 138.902344 215.808594 136.832031 231.527344 C 134.757812 247.246094 135.96875 238.839844 136.199219 240.105469 C 136.429688 241.371094 141.09375 244.710938 142.589844 245.804688 C 151.917969 252.714844 164.410156 258.761719 175.925781 260.546875 C 160.324219 243.15625 158.941406 219.320312 162.683594 197.210938 Z M 162.683594 197.210938 " fill-opacity="1" fill-rule="nonzero"/></g><path fill="#ffffff" d="M 209.726562 221.507812 C 211.742188 221.046875 222.507812 221.105469 223.949219 222.027344 C 229.074219 225.25 220.898438 231.585938 220.378906 233.3125 C 218.941406 238.03125 223.199219 240.394531 227.347656 239.703125 C 231.492188 239.011719 235.003906 231.238281 239.035156 236.304688 C 243.066406 241.371094 239.324219 240.625 237.769531 242.640625 C 234.140625 247.417969 226.484375 249.777344 220.839844 247.589844 C 215.195312 245.402344 217.671875 244.941406 215.945312 244.941406 C 214.21875 244.941406 209.382812 248.742188 204.488281 248.398438 C 199.59375 248.050781 190.667969 242.0625 193.027344 236.476562 C 195.390625 230.894531 199.9375 237.6875 201.839844 238.898438 C 205.640625 241.257812 213.585938 238.898438 212.085938 233.886719 C 211.742188 232.851562 209.667969 231.46875 208.863281 230.203125 C 207.136719 227.496094 205.410156 222.429688 209.785156 221.507812 Z M 209.726562 221.507812 " fill-opacity="1" fill-rule="nonzero"/><path fill="#ffffff" d="M 194.179688 203.65625 C 202.472656 201.871094 203.625 213.5625 197.40625 214.945312 C 189.171875 216.785156 188.019531 204.980469 194.179688 203.65625 Z M 194.179688 203.65625 " fill-opacity="1" fill-rule="nonzero"/><path fill="#ffffff" d="M 240.761719 205.5 C 245.945312 210.683594 237.421875 219.089844 232.585938 213.390625 C 227.863281 207.804688 235.925781 200.664062 240.761719 205.5 Z M 240.761719 205.5 " fill-opacity="1" fill-rule="nonzero"/><path fill="#ffffff" d="M 144.660156 135.136719 C 156.867188 132.375 155.890625 151.605469 144.203125 147.976562 C 139.308594 146.480469 139.652344 136.230469 144.660156 135.136719 Z M 144.660156 135.136719 " fill-opacity="1" fill-rule="nonzero"/><path fill="#ffffff" d="M 203.96875 99.4375 C 211.050781 97.308594 212.777344 107.210938 207.597656 108.882812 C 202.414062 110.550781 199.015625 100.9375 203.96875 99.4375 Z M 203.96875 99.4375 " fill-opacity="1" fill-rule="nonzero"/></svg>