<svg width="770" height="351" viewBox="0 0 770 351" fill="none" xmlns="http://www.w3.org/2000/svg">
<path d="M184 90C183.2 91.2 191.5 93.7 192.9 94.6C217.9 108.8 217.6 146.6 197 164.5C171.7 186.6 123.7 175 92.5 178C87.7 177.7 83.8 173.4 84 168.5C87.1 122.3 80 71 84 25.4C84.7 17.2 87.2 14.6 95.5 13.9C114.6 12.2 161.4 12.2 178.3 19.2C209 31.9 214.2 74.4 184 90ZM146.5 42C137.7 41.2 127.9 42.6 119 42V81H141.5C143.1 81 150.1 80.1 152.2 79.7C164.1 77.7 170.8 68.8 168.7 56.7C166.6 44.6 155.5 42.8 146.4 42H146.5ZM155.5 107C144.2 105.7 130.6 108 119 107V150H157.5C158 150 165 147.1 166.1 146.6C174.9 142 177.2 134.1 176 124.5C174.8 114.3 164.9 108.1 155.5 107Z" fill="#2e7d32"/>
<path d="M467 67C485.4 47.6 524.8 45.5 539.8 69.7C554.5 93.3 543.5 141.9 547 169.6C548.8 182.1 518.5 180.8 515.1 175.5C512.9 172 514.2 156.9 514 151.6C513.8 146.3 514 141.3 514 139C513.8 124.5 515.7 112.1 512.7 97.9C508.3 77.2 474.1 78.9 468.2 99C463 116.8 469.2 150.6 466.9 170.7C466.7 172.2 465.8 175.4 464.9 176.5C462.2 179.7 436.7 181.8 434.6 174L434.1 16C435.9 7.39999 461.1 8.79998 464.4 13.3C467.7 17.8 466.9 20 466.9 20.8V67.3L467 67Z" fill="#2e7d32"/>
<path d="M619.8 52.3C714.9 41.6 715.8 188.7 621.5 181C546.7 174.9 546.6 60.5 619.8 52.3ZM626.8 82.3C590.3 85.3 591.6 142.7 618.8 149.7C671.8 163.5 672.5 78.5 626.8 82.3Z" fill="#2e7d32"/>
<path d="M300 302V343.5C300 350 283.7 349.4 279.5 349C275.3 348.6 272.6 347.6 271.3 343.2L271 215.4C270.8 210.7 273 208.7 277.2 207.6C286.3 205.2 327 206.3 337.2 208.2C397.4 219.2 383.5 301.9 333.5 301.9H300V302ZM300 277H328.5C329 277 334.9 274.9 335.9 274.4C349.3 267.7 350.9 244.5 337.7 236.8C324.5 229.1 327.5 235 327.5 233H300V277Z" fill="#2e7d32"/>
<path d="M346.8 52.3C365.1 50.3 388.3 54.2 401 68.5C413.7 82.8 415.7 91.2 406.4 96.8C403.3 98.7 387.9 102.4 384.6 102C381.3 101.6 380.2 95.5 378 92.5C368.7 79.6 348.9 79.2 337.1 88.6C320 102.1 322.5 140.2 343.6 148.9C355.7 153.9 371.3 151.7 379.4 141C387.5 130.3 382.2 132.9 386.5 132.1C390.8 131.3 407.6 135.1 409.4 139.1C413.6 148.4 401.2 163.5 394.4 169.1C380.9 180.2 361.6 182.8 344.7 180.8C274.1 172.3 275.4 60 346.7 52.4L346.8 52.3Z" fill="#2e7d32"/>
<path d="M411 302C412.8 327 437.6 330.4 456.7 320.2C462.9 316.9 462.3 313 471.5 316.1C486.2 321 475.9 335.4 468 341.5C455 351.4 434.4 352.6 419.1 348.6C367.8 335.1 373 249.3 425.7 241.2C453.8 236.9 479 251 482 280.7C482.4 284.5 483.1 300.9 480.1 302.6L411.1 302H411ZM457 283C455.9 255 416 256.6 412 283H457Z" fill="#2e7d32"/>
<path d="M703.8 241.3C732.6 237.4 760.2 250.6 767.5 280C778.5 324.2 743.6 360.3 699 348.5C645.8 334.5 651.5 248.4 703.7 241.3H703.8ZM708.7 265.2C685 270 682.2 321.1 710.6 324.9C751.2 330.3 748.9 268.9 721.4 265.1C715 264.216 711.7 264.6 708.7 265.2Z" fill="#2e7d32"/>
<path d="M623 243H649.5C654.3 243 654.3 267 649.5 267H623V312.5C623 316.1 627.5 322 631.3 323.2C643.9 327.3 653 315.8 654 335.5C654.4 343.5 653.5 346.8 645.3 348.7C629.3 352.5 606.6 350.4 598.5 334C597 331 594 321.4 594 318.5V267C579.5 267.8 576 268 577 252.5C578 237 583.6 242.1 594 242V220.5C594 220.2 596.2 216.2 596.7 215.9C598.6 214.7 616.8 214.4 619.3 215.2C621.8 216 623 218.8 623 219.5V243Z" fill="#2e7d32"/>
<path d="M23 313V345.5C23 349.9 1.80001 351.7 1.20001 344.3L0.899994 246.5L2.89999 239.5C8.89999 238.3 14.8 238.5 20.8 239.2L23.4 246.1C59.8 219.9 90.6 253.9 80.2 292.9C74.5 314.1 53.3 326.2 32.2 318.3C11.1 310.4 26.3 314.3 22.9 313.1L23 313ZM39.8 255.2C23.6 256.8 19.1 277.3 24.3 290.2C25.7 293.8 31.7 300.3 35.6 300.9C70.5 306.4 67.7 252.4 39.8 255.2Z" fill="#2e7d32"/>
<path d="M502.3 244.3C505.1 241.3 521.1 241.2 524.8 242.8C530.3 245.1 529 252.2 529.1 257C536.4 247.8 548.8 238.4 561.4 241.2C574 244 568.6 262.2 566.1 268.5C563.6 271 554.6 269.6 550.7 270.1C519.1 273.8 533.4 321.9 530 343.4C529.589 346 529.4 346 528.6 347C525.6 350.1 501 351.7 501.3 342.3C502.8 312.4 498.5 279 501 249.5C501.381 245 501.1 245.5 502.3 244.3Z" fill="#2e7d32"/>
<path d="M123.8 237.3C155.6 233 174.3 250.7 172.1 282.6C169.9 314.5 149.6 322.6 123.7 319.9C80.5 315.4 80.7 243.1 123.8 237.3ZM128.7 255.2C107.5 258.5 107.6 298.1 127.5 300.9C147.1 303.6 153.1 288.6 150.8 271.6C149.3 260.5 139.8 253.5 128.6 255.2H128.7Z" fill="#2e7d32"/>
<path d="M266.7 59.3C268 60.7 268.8 65.4 269 67.5C271.8 100.6 267 137.8 268.7 171.3C268.3 181.5 241.6 181 237.9 175.6C234.3 170.3 236.9 164.8 237 159.6C237.4 127.3 236.4 95 237.2 62.8C237.8 54.1 263.9 56.3 266.7 59.3Z" fill="#2e7d32"/>
<path d="M232.8 238.2C235.4 240.9 236 255.9 233.5 259L231.6 259.9C196.8 253.3 209.4 293.1 207 313.5C206 320 205.6 319.4 202.5 320C196.4 321.2 185.1 320.9 185 312.5C186.5 290.9 183.1 266.7 185 245.4C186 240.5 185.5 239 188.5 238.9C191.7 238.3 202.4 238.1 204.4 241C206.4 243.9 204.5 247.9 206.4 246.9C208.3 245.9 210 242.8 212 241.5C216.2 238.6 228.8 234.1 232.7 238.2H232.8Z" fill="#2e7d32"/>
<path d="M249.7 1.20003C277.9 -3.09997 283.2 39.3 256.4 42.9C229.6 46.5 222.9 5.30003 249.7 1.20003Z" fill="#2e7d32"/>
</svg>
