<svg width="416" height="521" viewBox="0 0 416 521" fill="#2e7d32" xmlns="http://www.w3.org/2000/svg">
<path d="M186.709 0.661759C342.209 -10.9382 452.109 131.862 403.909 279.862C381.909 347.462 315.809 422.662 266.909 473.862C258.209 482.962 228.609 514.662 219.509 518.462C203.409 525.262 192.609 517.362 181.309 507.362C155.409 484.362 127.009 451.862 104.309 425.362C37.4092 347.062 -22.1908 258.562 8.10919 150.162C30.3092 70.7618 103.509 6.86176 186.609 0.661759H186.709ZM361.909 155.362C331.409 73.6618 244.409 26.1618 159.109 52.0618C123.609 62.8618 95.7092 86.3618 72.9092 114.862C81.4092 115.062 90.7092 112.662 99.4092 112.362C132.909 111.162 168.609 120.362 184.409 152.462C188.309 160.362 190.409 173.562 196.909 178.962C210.109 189.862 236.109 182.862 238.809 205.062C242.909 239.362 218.809 268.262 185.409 273.462C170.009 318.062 183.509 397.262 244.409 392.462C305.309 387.662 303.409 361.162 320.909 339.962C338.409 318.762 343.609 311.762 344.809 301.862C347.909 275.562 339.509 246.162 334.909 220.462L325.409 229.462L304.009 254.062C297.909 258.162 288.109 250.762 281.509 248.462C274.909 246.162 266.509 243.862 260.509 243.462C254.509 243.062 249.509 244.362 249.009 244.062C244.609 241.362 252.509 225.262 254.709 224.662C256.909 224.062 278.409 229.462 282.409 230.562C286.409 231.662 291.409 234.562 296.309 235.362C299.709 234.462 320.409 207.262 326.509 202.562C335.609 195.462 341.009 194.662 346.209 205.862C354.309 223.562 357.609 246.762 360.009 266.062C362.409 285.362 360.609 269.062 362.009 267.562C373.909 239.062 375.209 206.562 367.809 176.762L335.609 165.562C288.909 194.762 234.409 199.362 203.809 146.262C201.609 142.462 200.609 136.962 197.409 133.662C194.209 130.362 186.909 129.462 186.909 124.162C186.909 118.862 192.609 117.362 195.409 113.562C205.209 100.362 204.009 88.6618 222.309 79.4618C261.609 59.7618 285.709 101.762 309.409 124.662C324.009 138.662 341.509 152.162 361.909 155.662V155.362ZM318.909 153.362C296.809 141.162 281.909 117.362 262.909 101.862C233.209 77.5618 201.409 109.762 220.709 142.062C242.609 178.762 285.609 173.762 318.309 155.462L318.909 153.462V153.362ZM147.909 266.362C148.909 265.062 142.809 260.062 141.709 258.062C139.709 254.562 138.209 250.162 140.509 246.462C145.609 238.162 152.809 247.362 157.609 250.162C178.009 262.262 205.609 254.362 216.109 233.062C226.609 211.762 215.709 224.162 212.409 216.362C209.109 208.562 211.309 207.662 210.509 203.262C203.809 200.962 196.609 199.662 190.309 196.462C170.009 186.362 175.209 166.962 163.409 151.362C148.309 131.562 115.409 129.562 92.4092 131.262C79.2092 132.262 62.6092 135.462 55.9092 147.762C49.2092 160.062 40.5092 201.262 43.0092 219.662C45.5092 238.062 65.7092 239.762 74.2092 226.962C82.1092 215.062 78.4092 180.562 80.0092 164.762C81.4092 150.462 93.1092 148.762 98.8092 160.962C93.3092 189.662 107.309 249.362 63.5092 252.262C57.7092 252.662 53.4092 251.962 48.0092 250.262C58.5092 284.562 77.4092 316.262 103.009 341.262C102.409 310.862 119.509 278.562 148.009 266.262L147.909 266.362ZM164.909 277.362C137.909 286.262 123.609 309.662 120.009 336.962C116.409 364.262 118.509 349.662 118.909 351.862C119.309 354.062 127.409 359.862 130.009 361.762C146.209 373.762 167.909 384.262 187.909 387.362C160.809 357.162 158.409 315.762 164.909 277.362Z" fill="2e7d32"/>
<path d="M246.609 319.562C250.109 318.762 268.809 318.862 271.309 320.462C280.209 326.062 266.009 337.062 265.109 340.062C262.609 348.262 270.009 352.362 277.209 351.162C284.409 349.962 290.509 336.462 297.509 345.262C304.509 354.062 298.009 352.762 295.309 356.262C289.009 364.562 275.709 368.662 265.909 364.862C256.109 361.062 260.409 360.262 257.409 360.262C254.409 360.262 246.009 366.862 237.509 366.262C229.009 365.662 213.509 355.262 217.609 345.562C221.709 335.862 229.609 347.662 232.909 349.762C239.509 353.862 253.309 349.762 250.709 341.062C250.109 339.262 246.509 336.862 245.109 334.662C242.109 329.962 239.109 321.162 246.709 319.562H246.609Z" fill="2e7d32"/>
<path d="M219.609 288.562C234.009 285.462 236.009 305.762 225.209 308.162C210.909 311.362 208.909 290.862 219.609 288.562Z" fill="#2e7d32"/>
<path d="M300.509 291.762C309.509 300.762 294.709 315.362 286.309 305.462C278.109 295.762 292.109 283.362 300.509 291.762Z" fill="#2e7d32"/>
<path d="M133.609 169.562C154.809 164.762 153.109 198.162 132.809 191.862C124.309 189.262 124.909 171.462 133.609 169.562Z" fill="#2e7d32"/>
<path d="M236.609 107.562C248.909 103.862 251.909 121.062 242.909 123.962C233.909 126.862 228.009 110.162 236.609 107.562Z" fill="#2e7d32"/>
</svg>
